<svg xmlns="http://www.w3.org/2000/svg" width="256" height="256" viewBox="0 0 256 256" role="img" aria-label="Music Presence icon">
  <defs>
    <linearGradient id="bg" x1="42" y1="26" x2="214" y2="230" gradientUnits="userSpaceOnUse">
      <stop stop-color="#19BFA4"/>
      <stop offset="0.52" stop-color="#4C6FFF"/>
      <stop offset="1" stop-color="#F0548B"/>
    </linearGradient>
    <filter id="shadow" x="38" y="48" width="184" height="166" filterUnits="userSpaceOnUse" color-interpolation-filters="sRGB">
      <feDropShadow dx="0" dy="8" stdDeviation="10" flood-opacity="0.28"/>
    </filter>
  </defs>
  <rect width="256" height="256" rx="56" fill="#111318"/>
  <circle cx="128" cy="128" r="92" fill="url(#bg)"/>
  <g filter="url(#shadow)">
    <path d="M154 70v91.5c0 19.6-15.8 35.5-35.3 35.5-17.6 0-30.7-11.2-30.7-25.7 0-15.6 14.9-27.7 33.2-27.7 6.3 0 11.8 1.3 16.3 3.6V91.7l-54.9 11.7V85.2L154 70z" fill="#FFFFFF"/>
    <path d="M171.2 79.2c12.1 5.4 21.8 14.9 27.4 26.8 1.6 3.3 0.2 7.3-3.2 8.9-3.3 1.6-7.3 0.2-8.9-3.2-4.2-8.8-11.4-15.8-20.4-19.8-3.4-1.5-4.9-5.4-3.4-8.8 1.5-3.4 5.4-4.9 8.5-3.9z" fill="#FFFFFF" opacity="0.92"/>
    <path d="M175.5 51.5c20.4 8.7 36.8 24.8 45.9 45 1.5 3.4 0 7.3-3.3 8.8-3.4 1.5-7.3 0-8.8-3.3-7.7-17-21.5-30.6-38.7-37.9-3.4-1.5-5-5.4-3.5-8.8 1.4-3.4 5.3-5 8.4-3.8z" fill="#FFFFFF" opacity="0.72"/>
  </g>
</svg>
